<svg width="40" height="40" viewBox="0 0 40 40" fill="none" xmlns="http://www.w3.org/2000/svg">
<path d="M31.6673 6.66659H28.334V4.99992C28.334 4.55789 28.1584 4.13397 27.8458 3.82141C27.5333 3.50885 27.1093 3.33325 26.6673 3.33325C26.2253 3.33325 25.8014 3.50885 25.4888 3.82141C25.1762 4.13397 25.0007 4.55789 25.0007 4.99992V6.66659H15.0007V4.99992C15.0007 4.55789 14.8251 4.13397 14.5125 3.82141C14.1999 3.50885 13.776 3.33325 13.334 3.33325C12.892 3.33325 12.468 3.50885 12.1555 3.82141C11.8429 4.13397 11.6673 4.55789 11.6673 4.99992V6.66659H8.33398C7.0079 6.66659 5.73613 7.19337 4.79845 8.13105C3.86077 9.06873 3.33398 10.3405 3.33398 11.6666V31.6666C3.33398 32.9927 3.86077 34.2644 4.79845 35.2021C5.73613 36.1398 7.0079 36.6666 8.33398 36.6666H31.6673C32.9934 36.6666 34.2652 36.1398 35.2029 35.2021C36.1405 34.2644 36.6673 32.9927 36.6673 31.6666V11.6666C36.6673 10.3405 36.1405 9.06873 35.2029 8.13105C34.2652 7.19337 32.9934 6.66659 31.6673 6.66659ZM33.334 31.6666C33.334 32.1086 33.1584 32.5325 32.8458 32.8451C32.5333 33.1577 32.1093 33.3333 31.6673 33.3333H8.33398C7.89196 33.3333 7.46803 33.1577 7.15547 32.8451C6.84291 32.5325 6.66732 32.1086 6.66732 31.6666V19.9999H33.334V31.6666ZM33.334 16.6666H6.66732V11.6666C6.66732 11.2246 6.84291 10.8006 7.15547 10.4881C7.46803 10.1755 7.89196 9.99992 8.33398 9.99992H11.6673V11.6666C11.6673 12.1086 11.8429 12.5325 12.1555 12.8451C12.468 13.1577 12.892 13.3333 13.334 13.3333C13.776 13.3333 14.1999 13.1577 14.5125 12.8451C14.8251 12.5325 15.0007 12.1086 15.0007 11.6666V9.99992H25.0007V11.6666C25.0007 12.1086 25.1762 12.5325 25.4888 12.8451C25.8014 13.1577 26.2253 13.3333 26.6673 13.3333C27.1093 13.3333 27.5333 13.1577 27.8458 12.8451C28.1584 12.5325 28.334 12.1086 28.334 11.6666V9.99992H31.6673C32.1093 9.99992 32.5333 10.1755 32.8458 10.4881C33.1584 10.8006 33.334 11.2246 33.334 11.6666V16.6666Z" fill="black"/>
</svg>
