<svg width="27" height="27" viewBox="0 0 27 27" fill="none" xmlns="http://www.w3.org/2000/svg">
<path fill-rule="evenodd" clip-rule="evenodd" d="M13.5415 2.43745C11.4695 2.43745 9.48232 3.26055 8.01719 4.72567C6.55206 6.1908 5.72896 8.17794 5.72896 10.2499C5.72896 12.3219 6.55206 14.3091 8.01719 15.7742C9.48232 17.2393 11.4695 18.0624 13.5415 18.0624C15.6135 18.0624 17.6006 17.2393 19.0657 15.7742C20.5309 14.3091 21.354 12.3219 21.354 10.2499C21.354 8.17794 20.5309 6.1908 19.0657 4.72567C17.6006 3.26055 15.6135 2.43745 13.5415 2.43745ZM3.85396 10.2499C3.85497 8.83446 4.16615 7.4364 4.76562 6.15412C5.36509 4.87184 6.23827 3.73651 7.32373 2.82801C8.40919 1.91951 9.68055 1.25991 11.0484 0.895635C12.4162 0.531357 13.8472 0.471246 15.2407 0.719532C16.6343 0.967818 17.9565 1.51847 19.1143 2.33274C20.2721 3.14701 21.2374 4.20511 21.9423 5.4326C22.6472 6.66009 23.0745 8.02713 23.1943 9.43754C23.314 10.848 23.1231 12.2675 22.6352 13.5962L25.4952 16.5562C25.8165 16.8899 26.084 17.1674 26.284 17.3987C26.4815 17.6262 26.684 17.8862 26.8027 18.1887C27.2202 19.2449 26.8852 20.4949 25.879 21.1099C25.5915 21.2874 25.2615 21.3599 24.979 21.4074C24.689 21.4574 24.3215 21.4949 23.8877 21.5412L23.8577 21.5437C23.284 21.6049 23.1752 21.6237 23.1015 21.6524C22.9857 21.6977 22.8812 21.7679 22.7955 21.858C22.7097 21.948 22.6448 22.0558 22.6052 22.1737C22.5727 22.2612 22.554 22.3899 22.4952 22.9787L22.4927 23.0062C22.4477 23.4574 22.4102 23.8362 22.364 24.1337C22.319 24.4212 22.2515 24.7512 22.0852 25.0399C21.4977 26.0674 20.2615 26.4524 19.189 25.9987C18.8877 25.8712 18.6315 25.6574 18.414 25.4549C18.189 25.2474 17.9227 24.9699 17.6015 24.6362L17.5765 24.6112L13.5415 20.3624L9.50146 24.6187L9.48271 24.6374C9.16146 24.9712 8.89396 25.2487 8.67021 25.4562C8.45146 25.6587 8.19521 25.8724 7.89521 25.9999C6.82021 26.4537 5.58521 26.0687 4.99771 25.0412C4.83271 24.7524 4.76396 24.4237 4.71896 24.1337C4.67271 23.8374 4.63521 23.4587 4.59146 23.0087L4.58771 22.9799C4.53021 22.3912 4.51021 22.2637 4.47896 22.1749C4.43941 22.0571 4.37447 21.9493 4.28873 21.8592C4.20298 21.7691 4.09852 21.699 3.98271 21.6537C3.90771 21.6249 3.79896 21.6062 3.22521 21.5449L3.19646 21.5424C2.76271 21.4962 2.39521 21.4574 2.10521 21.4087C1.82271 21.3624 1.49271 21.2887 1.20396 21.1112C0.198962 20.4962 -0.136038 19.2462 0.280212 18.1899C0.400212 17.8874 0.601462 17.6274 0.798962 17.3999C0.998962 17.1687 1.26646 16.8912 1.58896 16.5574L4.44771 13.5974C4.05273 12.5257 3.85168 11.3922 3.85396 10.2499ZM5.32646 15.3862L2.95646 17.8399C2.61146 18.1974 2.37896 18.4374 2.21646 18.6262C2.14369 18.7025 2.07916 18.7863 2.02396 18.8762C1.91146 19.1637 2.02396 19.4062 2.17271 19.5049C2.18396 19.5087 2.24771 19.5299 2.41521 19.5587C2.64021 19.5962 2.95271 19.6299 3.42271 19.6799L3.51646 19.6899C3.94146 19.7337 4.31771 19.7737 4.65396 19.9024C5.40271 20.1899 5.97521 20.7899 6.24396 21.5424C6.36396 21.8787 6.40146 22.2587 6.44396 22.7012L6.45396 22.7949C6.50146 23.2812 6.53396 23.6062 6.57146 23.8449C6.60396 24.0474 6.62896 24.1124 6.63021 24.1162C6.73021 24.2849 6.93521 24.3674 7.16146 24.2724C7.16146 24.2724 7.22396 24.2387 7.39396 24.0799C7.57521 23.9124 7.80646 23.6737 8.15021 23.3174L8.15271 23.3149L11.5527 19.7324C10.2759 19.464 9.06646 18.9407 7.99664 18.1939C6.92682 17.4471 6.01864 16.4921 5.32646 15.3862ZM15.5302 19.7337C16.8073 19.4652 18.0171 18.9418 19.0872 18.1948C20.1572 17.4478 21.0655 16.4925 21.7577 15.3862L24.1277 17.8399C24.4727 18.1974 24.704 18.4374 24.8665 18.6262C25.0202 18.8012 25.0552 18.8699 25.059 18.8762C25.1715 19.1637 25.059 19.4062 24.9115 19.5049C24.899 19.5087 24.8365 19.5299 24.669 19.5587C24.4427 19.5962 24.1315 19.6299 23.6602 19.6799L23.5665 19.6899C23.1427 19.7337 22.7652 19.7737 22.429 19.9024C21.6815 20.1899 21.1077 20.7899 20.839 21.5424C20.719 21.8787 20.6815 22.2587 20.639 22.7012L20.629 22.7949C20.5815 23.2812 20.549 23.6062 20.5115 23.8449C20.4802 24.0474 20.454 24.1124 20.454 24.1162C20.354 24.2849 20.1477 24.3687 19.9202 24.2724H19.9227C19.9227 24.2724 19.8602 24.2387 19.689 24.0799C19.4305 23.8322 19.1783 23.5779 18.9327 23.3174L18.9302 23.3149L15.5302 19.7337ZM13.5427 7.79245C13.4702 7.91745 13.3869 8.06495 13.2927 8.23495L13.1702 8.45495L13.1427 8.50495C13.044 8.68495 12.8815 8.98245 12.6102 9.1887C12.334 9.3987 12.0002 9.4712 11.8065 9.5137L11.7527 9.52495L11.514 9.5787C11.294 9.6287 11.1165 9.6687 10.964 9.70745C11.0627 9.8287 11.1915 9.9812 11.359 10.1774L11.5215 10.3674L11.559 10.4099C11.694 10.5662 11.9127 10.8162 12.0127 11.1412C12.1127 11.4612 12.0777 11.7912 12.0565 11.9987L12.0502 12.0574L12.0252 12.3112C12.0062 12.5027 11.9891 12.6944 11.974 12.8862C12.104 12.8287 12.2515 12.7612 12.4277 12.6799L12.6515 12.5774L12.7015 12.5524C12.8815 12.4687 13.194 12.3224 13.5415 12.3224C13.8902 12.3224 14.2015 12.4687 14.3815 12.5537L14.4315 12.5774L14.6565 12.6799C14.8315 12.7612 14.979 12.8299 15.1102 12.8862L15.0577 12.3112L15.0327 12.0574L15.0265 11.9987C15.0052 11.7899 14.9715 11.4612 15.0702 11.1412C15.1702 10.8162 15.389 10.5662 15.524 10.4099L15.5615 10.3674L15.724 10.1774C15.8915 9.9812 16.0202 9.8287 16.1202 9.70745C15.9677 9.66995 15.789 9.6287 15.5702 9.5787L15.3315 9.52495L15.2777 9.51244C15.0827 9.47119 14.7502 9.3987 14.4727 9.18745C14.2015 8.98245 14.039 8.68495 13.9415 8.5062L13.9127 8.45495L13.7902 8.23495C13.6969 8.06495 13.614 7.91745 13.5415 7.79245M12.3077 6.24995C12.5227 5.9687 12.914 5.56245 13.5402 5.56245C14.1677 5.56245 14.559 5.9687 14.774 6.24995C14.979 6.51745 15.1865 6.8887 15.399 7.26995L15.4265 7.3212L15.5502 7.54245L15.6202 7.66745L15.744 7.6962L15.9815 7.74995L16.0415 7.76245C16.4515 7.8562 16.8577 7.94745 17.1702 8.0712C17.5165 8.20745 17.9827 8.47119 18.164 9.05244C18.3415 9.62119 18.1177 10.1037 17.9227 10.4149C17.7415 10.7024 17.4677 11.0224 17.1852 11.3512L17.1477 11.3949L16.9852 11.5862L16.8827 11.7074L16.8977 11.8762L16.9227 12.1299L16.9277 12.1874C16.9715 12.6274 17.0127 13.0524 16.9965 13.3924C16.9815 13.7499 16.8965 14.2899 16.4115 14.6562C15.9115 15.0362 15.3615 14.9537 15.0115 14.8524C14.689 14.7612 14.309 14.5849 13.924 14.4087L13.8702 14.3837L13.6465 14.2799L13.5402 14.2312L13.434 14.2812L13.2115 14.3837L13.1565 14.4087C12.7727 14.5849 12.3915 14.7612 12.069 14.8524C11.719 14.9524 11.169 15.0362 10.669 14.6562C10.1852 14.2899 10.1002 13.7499 10.084 13.3937C10.069 13.0524 10.109 12.6274 10.1527 12.1874L10.159 12.1299L10.184 11.8762L10.199 11.7074L10.0952 11.5862L9.93271 11.3949L9.89521 11.3512C9.61396 11.0224 9.33896 10.7012 9.15771 10.4137C8.96271 10.1037 8.74021 9.6212 8.91646 9.0512C9.09771 8.47245 9.56521 8.20745 9.91021 8.0712C10.2227 7.94745 10.6302 7.8562 11.0402 7.7637L11.0977 7.7512L11.3365 7.6962L11.4615 7.66745L11.5315 7.54245L11.654 7.3212L11.6827 7.26995C11.8952 6.8887 12.1015 6.51745 12.3077 6.24995Z" fill="black"/>
</svg>
