<svg width="224" height="216" viewBox="0 0 224 216" fill="none" xmlns="http://www.w3.org/2000/svg">
<path d="M103.6 21.3601C97.36 22.1601 87.92 24.4001 83.2 26.0801C54.56 36.7201 33.6 60.4801 27.12 89.6001C24.72 100.64 24.32 100 33.2 100H40.8V97.68C40.8 93.68 44.72 81.52 48.24 74.88C59.12 54 80.24 39.3601 103.84 36.4001L108 35.8401V28.3201C108 22.8001 107.76 20.8001 107.04 20.8801C106.48 20.9601 104.96 21.2001 103.6 21.3601Z" fill="black"/>
<path d="M116 28.32V35.84L120.24 36.4C143.68 39.36 164.96 54.08 175.76 74.8C179.2 81.44 183.2 93.84 183.2 97.76V100H191.2H199.2V97.36C199.2 92.8 195.2 79.28 191.68 71.6C187.36 62.4 182.96 55.84 176.16 48.64C161.44 33.04 143.12 24.08 120.24 21.28L116 20.72V28.32Z" fill="black"/>
<path d="M104.4 45.28C82.96 48.8 65.92 60.64 56.24 78.96C47.2 96 46.8 118.4 55.36 135.52C63.52 151.92 79.76 164.88 97.6 169.28C105.6 171.28 118.4 171.28 126.4 169.28C148.96 163.76 166.96 146.16 172.88 123.92C175.44 114.56 175.44 101.44 172.88 92C167.2 70.4 149.6 52.88 128 47.2C122.08 45.6 109.04 44.56 104.4 45.28Z" fill="black"/>
<path d="M25.12 114.16C27.6 141.84 41.44 166 63.28 180.8C73.92 188.08 90.4 194.16 103.44 195.6L108 196.08V188.16V180.16L103.84 179.6C96.64 178.72 85.44 175.2 78.8 171.76C57.28 160.56 42.32 138.16 40.32 114.24L39.76 108H32.16H24.56L25.12 114.16Z" fill="black"/>
<path d="M183.68 114.24C181.68 138.16 166.72 160.56 145.2 171.76C138.56 175.2 127.36 178.72 120.24 179.6L116 180.16V188.16V196.16L121.04 195.6C160.72 191.28 191.92 161.92 198.8 122.48C199.44 118.8 200 114 200 111.92V108H192.08H184.24L183.68 114.24Z" fill="black"/>
<path d="M105.713 140.419C106.258 139.861 106.563 139.111 106.563 138.331C106.563 137.551 106.258 136.802 105.713 136.244L75.2563 105L105.713 73.7625C106.258 73.2044 106.563 72.4552 106.563 71.675C106.563 70.8948 106.258 70.1456 105.713 69.5875C105.448 69.3154 105.131 69.0991 104.781 68.9514C104.431 68.8037 104.055 68.7276 103.675 68.7276C103.295 68.7276 102.919 68.8037 102.569 68.9514C102.219 69.0991 101.902 69.3154 101.638 69.5875L69.25 102.819C68.6812 103.402 68.3628 104.185 68.3628 105C68.3628 105.815 68.6812 106.598 69.25 107.181L101.638 140.413C101.902 140.685 102.219 140.901 102.569 141.049C102.919 141.196 103.295 141.272 103.675 141.272C104.055 141.272 104.431 141.196 104.781 141.049C105.131 140.901 105.448 140.685 105.713 140.413V140.419Z" fill="white"/>
<mask id="mask0_2008_2" style="mask-type:alpha" maskUnits="userSpaceOnUse" x="76" y="69" width="69" height="73">
<path fill-rule="evenodd" clip-rule="evenodd" d="M125.883 134.905C125.071 134.905 124.292 135.228 123.718 135.802C123.143 136.376 122.821 137.155 122.821 137.968C122.821 138.78 123.143 139.559 123.718 140.133C124.292 140.707 125.071 141.03 125.883 141.03H127.365C129.801 141.03 132.138 140.062 133.861 138.34C135.584 136.618 136.552 134.282 136.553 131.846L136.559 111.112C136.559 110.398 136.809 109.706 137.265 109.156C137.721 108.606 138.356 108.234 139.058 108.102C139.246 108.113 139.433 108.118 139.621 108.117H141.438C142.25 108.117 143.029 107.795 143.603 107.22C144.177 106.646 144.5 105.867 144.5 105.055V104.987C144.5 104.175 144.177 103.396 143.603 102.822C143.029 102.248 142.25 101.925 141.438 101.925H139.618C139.429 101.925 139.241 101.93 139.055 101.94C138.353 101.809 137.718 101.436 137.262 100.886C136.806 100.336 136.556 99.6443 136.556 98.9298L136.55 78.1967C136.55 75.76 135.582 73.4232 133.859 71.7002C132.136 69.9772 129.799 69.0092 127.362 69.0092H125.88C125.068 69.0092 124.289 69.3319 123.714 69.9062C123.14 70.4805 122.818 71.2595 122.818 72.0717C122.818 72.884 123.14 73.6629 123.714 74.2372C124.289 74.8116 125.068 75.1342 125.88 75.1342H127.362C128.174 75.1342 128.953 75.4569 129.528 76.0312C130.102 76.6055 130.425 77.3845 130.425 78.1967L130.431 98.9298C130.431 101.27 131.304 103.401 132.74 105.021C131.301 106.644 130.431 108.773 130.431 111.109L130.425 131.843C130.425 132.655 130.102 133.434 129.528 134.008C128.953 134.582 128.174 134.905 127.362 134.905H125.883ZM95.4234 134.905C96.2357 134.905 97.0146 135.228 97.589 135.802C98.1633 136.376 98.4859 137.155 98.4859 137.968C98.4859 138.78 98.1633 139.559 97.589 140.133C97.0146 140.707 96.2357 141.03 95.4234 141.03H93.9412C91.505 141.03 89.1686 140.062 87.4457 138.34C85.7228 136.618 84.7545 134.282 84.7537 131.846L84.7506 111.112C84.7506 110.398 84.5003 109.705 84.0434 109.155C83.5864 108.605 82.9514 108.233 82.2486 108.102C82.0648 108.112 81.878 108.117 81.6881 108.117H79.8659C79.0537 108.117 78.2748 107.795 77.7004 107.22C77.1261 106.646 76.8034 105.867 76.8034 105.055V104.987C76.8034 104.175 77.1261 103.396 77.7004 102.822C78.2748 102.248 79.0537 101.925 79.8659 101.925H81.6881C81.8739 101.925 82.0607 101.93 82.2486 101.94C82.9514 101.809 83.5864 101.437 84.0434 100.887C84.5003 100.337 84.7506 99.6448 84.7506 98.9298L84.7537 78.1967C84.7537 75.76 85.7217 73.4232 87.4446 71.7002C89.1676 69.9772 91.5045 69.0092 93.9412 69.0092H95.4234C96.2357 69.0092 97.0146 69.3319 97.589 69.9062C98.1633 70.4805 98.4859 71.2595 98.4859 72.0717C98.4859 72.884 98.1633 73.6629 97.589 74.2372C97.0146 74.8116 96.2357 75.1342 95.4234 75.1342H93.9412C93.129 75.1342 92.35 75.4569 91.7757 76.0312C91.2013 76.6055 90.8787 77.3845 90.8787 78.1967L90.8756 98.9298C90.8756 101.267 90.0028 103.401 88.5665 105.021C90.0537 106.701 90.875 108.866 90.8756 111.109L90.8787 131.843C90.8787 132.655 91.2013 133.434 91.7757 134.008C92.35 134.582 93.129 134.905 93.9412 134.905H95.4234Z" fill="black"/>
</mask>
<g mask="url(#mask0_2008_2)">
<path d="M144.5 142.5H113.63V69H144.5V142.5Z" fill="white"/>
</g>
</svg>
